# xmcd
#
# Track frame offsets:
#	150
#	11575
#	23047
#	35010
#	49060
#	66402
#	76637
#	89732
#	100482
#	114582
#	128362
#	143552
#	155272
#	166685
#	177030
#	186185
#	199045
#	212337
#	224000
#	236342
#
# Disc length: 3314 seconds
#
# Revision: 1
# Processed by: cddbd v1.5.1PL0 Copyright (c) Steve Scherf et al.
# Submitted via: audiograbber 1.83.01
#
DISCID=050cf014
DTITLE=Divers - Country Classics North To Alaska
DYEAR=1900
DGENRE=Country
TTITLE0=Just Out Of Reach (Patsy Cline)
TTITLE1=Blue Eyes Crying In The Rain (Roy Drusky)
TTITLE2=Ease The Want In Me (Billie Jo Spears)
TTITLE3=Almost Persuaded (Johnny Paycheck)
TTITLE4=Somethings Burning ( Kenny Rogers)
TTITLE5=He'll Have To Go (Jim Reeves)
TTITLE6=Apartment 9 (Faron Young)
TTITLE7=Dream Baby (Waylon Jennings)
TTITLE8=Baby I Want To Love You (Freddy Fender)
TTITLE9=Things Have Gone Yo Peaces (George Jones)
TTITLE10=Face Of A Fighter (Willie Nelson)
TTITLE11=Making Belive (Dolly Parton)
TTITLE12=9999999 Tears (Razzy Baily)
TTITLE13=Kaw-Liga (Barbera Mandrell)
TTITLE14=I'll Repossess My Heart (Kitty Wells)
TTITLE15=North To Alaska (Boxcar Willie)
TTITLE16=I Never Promised You A Rose Garden (Lynn Anderson)
TTITLE17=I've Loved And Lost Again (Patsy Cline)
TTITLE18=I Can't Find The Time (Willie Nelson)
TTITLE19=Sweet Dreams (Faron Young)
EXTD=
EXTT0=
EXTT1=
EXTT2=
EXTT3=
EXTT4=
EXTT5=
EXTT6=
EXTT7=
EXTT8=
EXTT9=
EXTT10=
EXTT11=
EXTT12=
EXTT13=
EXTT14=
EXTT15=
EXTT16=
EXTT17=
EXTT18=
EXTT19=
PLAYORDER=
